<svg width="58" height="44" viewBox="0 0 58 44" fill="none" xmlns="http://www.w3.org/2000/svg">
<path d="M37 24.6667C35.5273 24.6667 34.3333 23.4728 34.3333 22C34.3333 20.5273 35.5273 19.3333 37 19.3333C38.4728 19.3333 39.6667 20.5273 39.6667 22C39.6667 22.7073 39.3857 23.3855 38.8856 23.8856C38.3855 24.3857 37.7073 24.6667 37 24.6667ZM29 24.6667C27.5273 24.6667 26.3333 23.4728 26.3333 22C26.3333 20.5273 27.5273 19.3333 29 19.3333C30.4728 19.3333 31.6667 20.5273 31.6667 22C31.6667 22.7073 31.3857 23.3855 30.8856 23.8856C30.3855 24.3857 29.7073 24.6667 29 24.6667ZM21 24.6667C19.5273 24.6667 18.3333 23.4728 18.3333 22C18.3333 20.5273 19.5273 19.3333 21 19.3333C22.4728 19.3333 23.6667 20.5273 23.6667 22C23.6667 22.7073 23.3857 23.3855 22.8856 23.8856C22.3855 24.3857 21.7073 24.6667 21 24.6667Z" fill="#0F1828"/>
</svg>
